<?xml version="1.0" encoding="utf-8"?>
<!-- Generator: Adobe Illustrator 23.0.3, SVG Export Plug-In . SVG Version: 6.00 Build 0)  -->
<svg version="1.1" id="carte_3" xmlns="http://www.w3.org/2000/svg" xmlns:xlink="http://www.w3.org/1999/xlink" x="0px" y="0px"
	viewBox="0 0 1689.4 1383.2" style="enable-background:new 0 0 1689.4 1383.2;" xml:space="preserve">
	<g class="st0">
		<polyline class="st1" points="240.1,289.5 338.2,256.8 357,130.3 	"/>
		<polyline class="st1" points="246.7,287.3 261.9,330.9 416.7,289.5 379.6,431.1 235.8,448.6 	"/>
		<polyline class="st1" points="917.9,505.2 606.3,649.1 377.4,433.3 	"/>
		<polyline class="st1" points="606.3,649.1 427.5,660 353.4,740.6 240.1,629.5 294.6,577.2 257.5,553.2 223.7,608 	"/>
		<polyline class="st1" points="198.7,649.1 222.7,721 277.2,666.5 	"/>
		<polyline class="st1" points="191.7,967.8 462.4,1128.6 549.6,895.4 377.4,710.1 	"/>
		<polyline class="st1" points="509,851.2 554,801.6 791.8,1004.9 	"/>
		<polyline class="st1" points="217.2,983.6 196.5,1095.9 277.2,1137.3 209.6,1318.2 	"/>
		<line class="st1" x1="462.4" y1="1130.8" x2="525.6" y2="1270.2"/>
	</g>
	<polygon class="st2" points="264,58 357,130.3 423.7,73.3 469.5,108 672.3,46.9 750.1,134.4 729.2,169.1 829.4,260.2 1002.9,417.8 
		918.1,503.9 983.4,537.2 973.7,663.6 1058.4,685.8 950.1,812.2 937.8,885.4 920.9,985.8 618.1,1035.8 605.6,1137.2 614,1170.5 
		584.8,1230.3 415.4,1331.6 412.6,1276.1 365.4,1283 370.9,1305.3 294.5,1334.4 268.1,1310.8 107,1330.3 172.3,1231.6 145.9,1177.5 
		83.4,1153.9 64,1062.2 191.7,967.8 159.8,874.7 202.9,626.1 223.7,608 240.4,474.7 208.5,365.9 241.7,285.8 184.5,179"/>
	<polyline class="st3" points="937.8,885.4 920.9,985.8 618.1,1035.8 605.6,1137.2 614,1170.5 584.8,1230.3 415.4,1331.6 
		412.6,1276.1 365.4,1283 370.9,1305.3 294.5,1334.4 268.1,1310.8 107,1330.3 172.3,1231.6 145.9,1177.5 83.4,1153.9 64,1062.2 
		191.7,967.8 159.8,874.7 202.9,626.1 223.7,608 240.4,474.7 208.5,365.9 241.7,285.8 184.5,179 264,58 357,130.3 423.7,73.3 
		469.5,108 672.3,46.9 750.1,134.4 729.2,169.1 829.4,260.2"/>
	<g id="Calque_14_-_copie_2">
		<polyline class="st4" points="619,1040.7 565.8,1017.3 914.8,504.6 433.9,204.6 731.8,166.3 550.2,1011.1 397.8,532.2"/>
		<polyline class="st4" points="361.6,130.1 433.9,204.6 550.2,1011.1 414.8,1276.9"/>
		<polyline class="st5" points="422,161.1 293.4,345.9 322.5,501.6 184.1,588.9 309,784.8 548.6,990.4 548.6,990.4 337.6,1133.7 
			114.7,1220.9"/>
		<polyline class="st6" points="948.8,811 225.4,649.3 276.6,1092.2 189.3,970.5"/>
		<line class="st5" x1="586.2" y1="768.8" x2="548.6" y2="990.4"/>
	</g>
	<circle class="st7" cx="422" cy="161.1" r="26.9"/>
	<circle class="st7" cx="293.4" cy="345.9" r="26.9"/>
	<circle class="st7" cx="322.5" cy="501.6" r="26.9"/>
	<circle class="st7" cx="184.1" cy="588.9" r="26.9"/>
	<circle class="st7" cx="309" cy="784.8" r="26.9"/>
	<circle class="st7" cx="548.6" cy="990.4" r="26.9"/>
	<circle class="st7" cx="336.8" cy="1134.5" r="26.9"/>
	<circle class="st7" cx="114.7" cy="1220.9" r="26.9"/>
	<circle class="st7" cx="586.2" cy="768.8" r="26.9"/>
</svg>
